<svg width="109" height="75" viewBox="0 0 109 75" fill="none" xmlns="http://www.w3.org/2000/svg">
<g filter="url(#filter0_d_15_69)">
<path d="M74.837 66.8568V39.9902H93.9926V45.8673H82.0528V50.485H93.0063V56.362H82.0528V60.9797H93.9407V66.8568H74.837Z" fill="white"/>
<path d="M40.7892 39.9902H49.77L55.9475 55.2076H56.259L62.4366 39.9902H71.4174V66.8568H64.3573V51.3246H64.1497L58.2317 66.6469H53.9749L48.0569 51.2196H47.8492V66.8568H40.7892V39.9902Z" fill="white"/>
<path d="M37.3694 39.9902V66.8568H30.1536V39.9902H37.3694Z" fill="white"/>
<path d="M4.33704 45.8673V39.9902H27.438V45.8673H19.4435V66.8568H12.3315V45.8673H4.33704Z" fill="white"/>
<path d="M50.6206 34.8738V12.7584H60.0644C61.6882 12.7584 63.109 13.0824 64.3269 13.7303C65.5447 14.3782 66.492 15.2889 67.1685 16.4623C67.8451 17.6358 68.1834 19.0072 68.1834 20.5766C68.1834 22.1604 67.8345 23.5318 67.1365 24.6908C66.4457 25.8499 65.4735 26.7425 64.22 27.3689C62.9737 27.9952 61.5172 28.3083 59.8507 28.3083H54.2101V23.6434H58.6542C59.3522 23.6434 59.9468 23.521 60.4383 23.2762C60.9368 23.0242 61.3178 22.6679 61.5813 22.2071C61.852 21.7464 61.9873 21.2029 61.9873 20.5766C61.9873 19.9431 61.852 19.4031 61.5813 18.9568C61.3178 18.5032 60.9368 18.1577 60.4383 17.9201C59.9468 17.6754 59.3522 17.553 58.6542 17.553H56.5603V34.8738H50.6206Z" fill="#64099B"/>
<path d="M41.1299 12.7584H47.0696V26.9261C47.0696 28.6107 46.6708 30.0685 45.8731 31.2995C45.0826 32.5234 43.9787 33.47 42.5614 34.1395C41.1441 34.8019 39.499 35.133 37.6259 35.133C35.7386 35.133 34.0863 34.8019 32.669 34.1395C31.2517 33.47 30.1478 32.5234 29.3573 31.2995C28.5738 30.0685 28.1821 28.6107 28.1821 26.9261V12.7584H34.1219V26.4078C34.1219 27.0917 34.2714 27.7036 34.5706 28.2435C34.8697 28.7763 35.2828 29.1938 35.8098 29.4962C36.3439 29.7985 36.9493 29.9497 37.6259 29.9497C38.3096 29.9497 38.915 29.7985 39.442 29.4962C39.969 29.1938 40.3821 28.7763 40.6812 28.2435C40.9803 27.7036 41.1299 27.0917 41.1299 26.4078V12.7584Z" fill="#64099B"/>
<path d="M25.4874 21.0517H19.4622C19.4195 20.5478 19.3055 20.0906 19.1203 19.6803C18.9423 19.2699 18.693 18.9172 18.3725 18.622C18.0592 18.3197 17.6781 18.0893 17.2295 17.9309C16.7808 17.7653 16.2715 17.6825 15.7018 17.6825C14.7047 17.6825 13.8608 17.9273 13.1699 18.4169C12.4862 18.9064 11.9663 19.6083 11.6102 20.5226C11.2612 21.4368 11.0867 22.5347 11.0867 23.8161C11.0867 25.1695 11.2648 26.3034 11.6209 27.2177C11.9841 28.1247 12.5076 28.8086 13.1913 29.2694C13.875 29.7229 14.6976 29.9497 15.6591 29.9497C16.2075 29.9497 16.6989 29.8813 17.1333 29.7445C17.5678 29.6005 17.9452 29.3954 18.2657 29.129C18.5862 28.8626 18.8461 28.5423 19.0456 28.1679C19.2521 27.7864 19.391 27.358 19.4622 26.8829L25.4874 26.9261C25.4162 27.862 25.1562 28.8158 24.7075 29.7877C24.2589 30.7524 23.6214 31.6451 22.7953 32.4658C21.9763 33.2792 20.9614 33.9344 19.7506 34.4311C18.5399 34.9278 17.1333 35.1762 15.5309 35.1762C13.5225 35.1762 11.7206 34.7407 10.1253 33.8696C8.53707 32.9985 7.28004 31.7171 6.35418 30.0253C5.43544 28.3335 4.97607 26.2638 4.97607 23.8161C4.97607 21.3541 5.44613 19.2807 6.38623 17.5962C7.32633 15.9044 8.59405 14.6266 10.1894 13.7627C11.7847 12.8916 13.5652 12.4561 15.5309 12.4561C16.9125 12.4561 18.1838 12.6468 19.3447 13.0284C20.5056 13.4099 21.524 13.9679 22.4 14.7022C23.276 15.4293 23.9811 16.3255 24.5153 17.391C25.0494 18.4564 25.3735 19.6767 25.4874 21.0517Z" fill="#64099B"/>
<g clip-path="url(#clip0_15_69)">
<path d="M99.933 22.2674V16.9832H93.6636V12.6853H72.7655V31.8495C72.7655 34.181 74.64 36.0769 76.9451 36.0769H89.484C91.7891 36.0769 93.6636 34.181 93.6636 31.8495V29.629C97.1988 29.1107 99.933 25.9843 99.933 22.2674ZM97.8432 22.2674C97.8432 24.8191 96.0453 27.0242 93.6636 27.5152V19.0969H97.8432V22.2674ZM77.9308 1.57083L76.5329 0C73.6043 2.66791 75.1798 4.71454 76.1206 5.93654C77.039 7.13064 77.3829 7.57755 76.2063 8.76756L77.6839 10.262C80.1655 7.752 78.6655 5.80239 77.7695 4.63823C76.8084 3.38932 76.4482 2.92184 77.9308 1.57083ZM83.1553 1.57083L81.7574 0C78.8288 2.66791 80.4043 4.71454 81.3451 5.93654C82.2635 7.13064 82.6074 7.57755 81.4308 8.76756L82.9084 10.262C85.39 7.752 83.89 5.80239 82.9941 4.63823C82.0329 3.38932 81.6727 2.92184 83.1553 1.57083ZM88.3799 1.57083L86.9819 0C84.0533 2.66791 85.6288 4.71454 86.5697 5.93654C87.4881 7.13064 87.8319 7.57755 86.6553 8.76756L88.1329 10.262C90.6146 7.752 89.1146 5.80239 88.2186 4.63823C87.2574 3.38932 86.8972 2.92184 88.3799 1.57083Z" fill="#64099B"/>
</g>
</g>
<defs>
<filter id="filter0_d_15_69" x="-1" y="0" width="109.184" height="75" filterUnits="userSpaceOnUse" color-interpolation-filters="sRGB">
<feFlood flood-opacity="0" result="BackgroundImageFix"/>
<feColorMatrix in="SourceAlpha" type="matrix" values="0 0 0 0 0 0 0 0 0 0 0 0 0 0 0 0 0 0 127 0" result="hardAlpha"/>
<feOffset dy="4"/>
<feGaussianBlur stdDeviation="2"/>
<feComposite in2="hardAlpha" operator="out"/>
<feColorMatrix type="matrix" values="0 0 0 0 0 0 0 0 0 0 0 0 0 0 0 0 0 0 0.25 0"/>
<feBlend mode="normal" in2="BackgroundImageFix" result="effect1_dropShadow_15_69"/>
<feBlend mode="normal" in="SourceGraphic" in2="effect1_dropShadow_15_69" result="shape"/>
</filter>
<clipPath id="clip0_15_69">
<rect width="35.6691" height="36.0769" fill="white" transform="translate(68.5146)"/>
</clipPath>
</defs>
</svg>
